<?xml version="1.0" standalone="no"?>
<!DOCTYPE svg PUBLIC "-//W3C//DTD SVG 1.1//EN" "http://www.w3.org/Graphics/SVG/1.1/DTD/svg11.dtd" >
<svg xmlns="http://www.w3.org/2000/svg">
<metadata>Generated by IcoMoon</metadata>
<defs>
<font id="icomoon" horiz-adv-x="1024">
<font-face units-per-em="1024" ascent="960" descent="-64" />
<missing-glyph horiz-adv-x="1024" />
<glyph unicode="&#x20;" horiz-adv-x="512" d="" />
<glyph unicode="&#xe900;" glyph-name="head2" d="M192 672h64.003v64h-64.003v-64zM383.999 160.002h447.998v64.003h-447.998v-64.003zM192 160.002h64.003v64.003h-64.003v-64.003zM192 416.001h64.003v64h-64.003v-64zM895.997 959.999h-767.998c-70.691 0-127.999-57.309-127.999-127.999v-767.998c0-70.691 57.309-127.999 127.999-127.999h767.998c70.691 0 128.003 57.309 128.003 127.999v767.998c0 70.691-57.311 127.999-128.003 127.999zM959.997 64.002c0-35.343-28.653-64-64-64h-767.998c-35.347 0-64 28.657-64 64v767.998c0 35.343 28.653 64.003 64 64.003h767.998c35.347 0 64-28.659 64-64.003v-767.998zM383.999 416.001h447.998v64h-447.998v-64zM383.999 672h447.998v64h-447.998v-64z" />
<glyph unicode="&#xe901;" glyph-name="person" d="M512-64c282.687 0 511.871 229.23 511.871 512.003 0 282.777-229.185 511.998-511.871 511.998-282.698 0-511.871-229.22-511.871-511.998 0-282.772 229.173-512.003 511.871-512.003zM338.777 154.856l-39.784 23.118 120.061-48.604-80.276 25.488zM421.236 408.451v0.403l13.182 2.491c3.015 9.578 4.764 16.969 5.591 21.855-6.472 3.589-10.539 7.063-17.225 15.651-8.394 10.805-30.68 51.614-36.197 81.282-5.356 12.102-15.366 36.197-16.402 49.76-0.818 10.789 2.503 19.448 7.525 25.863-7.574 49.702 0.433 89.931 23.884 119.692 25.052 31.829 61.197 43.454 86.673 47.606v1.553l23.339 0.717 25.692-1.342c77.949-5.755 98.263-21.399 107.020-34.695 0.381-0.596 0.751-1.194 1.081-1.785h19.096l-23.174-42.504c9.583-24.93 11.813-54.686 6.706-88.732 5.364-6.664 8.712-15.61 7.877-26.358-1.041-13.576-11.038-37.669-16.402-49.771-5.522-29.708-27.775-70.483-36.174-81.26-6.716-8.609-10.76-12.062-17.237-15.673 0.876-5.17 2.769-12.959 5.852-22.685l12.885-2.127v-1.223c102.345-21.32 169.804-75.692 169.804-138.487 0-9.337-1.512-18.721-4.498-27.899l-9.861-21.36c-2.957-4.839-5.955-9.066-9.246-13.103l-16.577-17.345-3.309-2.878c-4.453-3.742-8.628-6.949-13.039-10.054l-31.414-18.465c-3.23-1.605-5.709-2.782-8.269-3.919l-59.144-20.188-7.341 20.796 5.216-21.32-79.678-11.488-3.793 21.769 1.125-21.911-24.892-0.625-88.773 8.257-124.128 50.511-28.031 26.579c-1.378 1.711-2.144 2.708-2.9 3.719l-4.891 7.001c0 0 0 0-0.027 0l-0.581 0.928c-9.275 14.696-14.404 30.249-15.263 46.25-0.091 1.496-0.141 3.106-0.141 4.743 0 64.533 69.964 119.401 176.058 139.775z" />
<glyph unicode="&#xe902;" glyph-name="add" d="M512 960c-281.6 0-512-230.4-512-512s230.4-512 512-512c281.6 0 512 230.4 512 512s-230.4 512-512 512zM716.8 396.8h-153.6v-153.6c0-30.72-20.48-51.2-51.2-51.2s-51.2 20.48-51.2 51.2v153.6h-153.6c-30.72 0-51.2 20.48-51.2 51.2s20.48 51.2 51.2 51.2h153.6v153.6c0 30.72 20.48 51.2 51.2 51.2s51.2-20.48 51.2-51.2v-153.6h153.6c30.72 0 51.2-20.48 51.2-51.2s-20.48-51.2-51.2-51.2z" />
<glyph unicode="&#xe903;" glyph-name="power" d="M511.996-64c-266.964 0-483.377 212.853-483.377 475.42 0 187.189 110.098 348.876 269.977 426.411 6.8 7.502 16.412 12.421 27.422 12.438 0.023 0.010 0.040 0.023 0.062 0.027v-0.017c20.536 0 37.186-16.372 37.186-36.565 0-20.199-16.651-36.572-37.186-36.572v-7.699c-132.332-66.622-223.101-201.757-223.101-358.022 0-222.169 183.121-402.283 409.016-402.283 225.898 0 409.016 180.114 409.016 402.283 0 156.263-90.76 291.398-223.095 358.022v7.699c-20.541 0-37.186 16.372-37.186 36.572 0 20.193 16.645 36.565 37.186 36.565v0.017c0.017-0.006 0.033-0.017 0.058-0.027 11.008-0.017 20.622-4.936 27.422-12.438 159.879-77.536 269.984-239.222 269.984-426.411-0.002-262.569-216.421-475.42-483.385-475.42zM511.996 594.285c-20.536 0-37.181 16.372-37.181 36.565v292.578c0 20.193 16.645 36.572 37.181 36.572s37.186-16.377 37.186-36.572v-292.576c0.002-20.195-16.649-36.568-37.186-36.568z" />
<glyph unicode="&#xe904;" glyph-name="head3" d="M1023.914 128.025h-127.926v639.984c0 106.032-85.96 191.991-191.991 191.991h-383.988c-106.038 0-191.997-85.96-191.997-191.991v-639.984h-127.997v-63.999h0.004v-128.025h1023.966v192.059l-0.070-0.036zM480.004 704.008h63.991v-255.992h-63.991v255.992zM480.004 384.017h63.991v-63.998h-63.991v63.998zM959.986-0.064h-895.973v64.090h895.972v-64.090z" />
<glyph unicode="&#xe905;" glyph-name="legend" d="M512 960.001c282.668 0 511.814-229.233 511.814-512.004 0-282.764-229.148-511.996-511.814-511.996-282.676 0-511.814 229.233-511.814 511.996 0 282.771 229.14 512.004 511.814 512.004z" />
<glyph unicode="&#xe906;" glyph-name="cancel" d="M512 960c-284.16 0-512-227.84-512-512s227.84-512 512-512c284.096 0 512 227.84 512 512s-227.904 512-512 512v0zM768 263.68l-71.744-71.68-184.256 184.32-184.384-184.32-71.616 71.68 184.256 184.32-184.256 184.32 71.616 71.68 184.384-184.32 184.256 184.32 71.744-71.68-184.384-184.32 184.384-184.32z" />
<glyph unicode="&#xe907;" glyph-name="left-add" d="M512 960c282.665 0 511.814-229.226 511.814-512 0-282.768-229.148-512-511.814-512-282.668 0-511.814 229.232-511.814 512 0 282.774 229.145 512 511.814 512zM754.7 475.498h-189.939v190.006h-105.521v-190.006h-189.939v-105.559h189.939v-190.005h105.521v190.005h189.939z" />
<glyph unicode="&#xe908;" glyph-name="left-alarm" d="M1023.821 287.995h-159.943v160.002h-63.977v-160.001h-82.256l82.256 287.999h63.977v192.003c0 35.354-28.649 64.003-63.984 64.003h-193.43l-63.184 127.999h-124.621l-67.765-127.999h-190.774c-35.328 0-63.971-28.649-63.971-64.003v-512.329l-63.977-127.673c-17.664 0-31.995-14.331-31.995-32.001s14.331-31.995 31.995-31.995h351.875v-96.012c0-17.664 14.326-31.988 31.988-31.988h127.955c17.664 0 31.988 14.326 31.988 31.988v96.003l95.967 0.007v63.996h-543.813l31.995 64.003v127.999l-0.007 416.006c0 17.664 14.326 31.995 31.995 31.995h191.803l62.653 128.007h65.321l61.758-128.007h194.26c17.67 0 31.983-14.331 31.983-31.995v-160.014l-82.251-287.994h-77.685v-63.996h159.943v-160.008h63.977v160.008h159.943v63.996zM448.027 63.999h63.978v-64.008h-63.978v64.008z" />
<glyph unicode="&#xe909;" glyph-name="left-edit" d="M428.882 488.871h-13.001v-125.876h16.685v-11.185h118.043v14.888l7.494-7.521 465.629 467.305-133.032 133.519-465.63-467.305 3.813-3.824zM478.598 457.407l412.1 413.585 44.344-44.511-413.942-415.432h-42.503v46.358zM991.525 511.773c-17.658 0-31.976-14.318-31.976-31.989v-479.82h-895.329v863.673h415.688c17.664 0 31.976 14.318 31.976 31.983 0 17.671-14.312 31.994-31.976 31.994h-479.641v-991.615h1023.227v543.784c0 17.671-14.312 31.989-31.97 31.989z" />
<glyph unicode="&#xe90a;" glyph-name="left-group" d="M895.864 960h-767.728c-70.669 0-127.954-57.285-127.954-127.954v-768.092c0-70.664 57.285-127.954 127.954-127.954h767.728c70.664 0 127.954 57.291 127.954 127.954v768.092c0 70.669-57.292 127.954-127.954 127.954zM959.84 63.979c0-35.335-28.65-63.985-63.978-63.985h-767.728c-35.335 0-63.978 28.65-63.978 63.985v768.053c0 35.335 28.643 63.971 63.978 63.971h767.728c35.328 0 63.978-28.636 63.978-63.971v-768.053zM160.126 95.994h127.954v128.005h-127.954v-128.005zM671.944 128.002h191.932v63.997h-191.932v-63.997zM160.126 384h127.954v127.999h-127.954v-127.999zM671.944 416.001h191.932v63.997h-191.932v-63.997zM160.126 671.999h127.954v127.999h-127.954v-127.999zM671.944 704.001h191.932v64.002h-191.932v-64.002z" />
<glyph unicode="&#xe90b;" glyph-name="monitor0" d="M916.693 960h-809.391c-52.586 0-95.216-42.63-95.216-95.222v-833.556c0-52.592 42.63-95.222 95.216-95.222h809.391c52.586 0 95.222 42.63 95.222 95.222v833.556c0 52.592-42.638 95.222-95.222 95.222zM202.528 55.067h-95.226v95.261h95.226v-95.261zM916.693 78.888h-166.639v47.627h166.639v-47.627zM964.302 256.626c-14.008 8.108-30.26 12.77-47.611 12.77h-809.391c-17.347 0-33.598-4.663-47.607-12.768v608.138c0 26.296 21.315 47.607 47.607 47.607h809.391c26.292 0 47.611-21.311 47.611-47.607v-608.142zM583.417 748.629v116.12h-142.837v-126.661l-187.472-278.18h-98.195v-142.88h142.837v47.621h428.494v-47.621h142.837v142.88h-102.241l-183.424 288.721zM726.242 412.279h-428.494v29.472l185.977 275.957-4.643 4.157h66.143l181.018-284.937v-24.649z" />
<glyph unicode="&#xe90c;" glyph-name="left-root" d="M927.995 223.92v256.089h-384v192.070h160.001v256.090h-384v-256.090h160.001v-192.070h-383.999v-256.089h-95.999v-256.089h255.999v256.089h-95.999v192.063h320v-192.063h-95.999v-256.089h255.999v256.089h-95.999v192.063h320v-192.063h-95.999v-256.089h256v256.089z" />
<glyph unicode="&#xe90d;" glyph-name="left-search" d="M1009.228-49.41c-14.59-14.59-38.236-14.59-52.827 0l-247.020 247.115c-75.061-63.155-171.804-101.319-277.55-101.319-238.389 0-431.649 193.332-431.649 431.807 0 238.481 193.26 431.807 431.649 431.807 238.396 0 431.649-193.323 431.649-431.807 0-105.778-38.157-202.561-101.272-277.645l247.020-247.116c14.591-14.59 14.591-38.252 0-52.842zM784.999 528.192c0 195.121-158.109 353.292-353.167 353.292-195.051 0-353.167-158.172-353.167-353.292s158.116-353.292 353.167-353.292c195.059 0 353.167 158.171 353.167 353.292z" />
<glyph unicode="&#xe90e;" glyph-name="left-trash" d="M991.828 768h-63.985v-768.009c0-35.347-28.636-63.99-63.976-63.99h-703.751c-35.335 0-63.976 28.642-63.976 63.99v768.009h-63.971c-17.665 0-31.988 14.326-31.988 31.995 0 17.678 14.326 32.001 31.988 32.001h319.887v96.010c0 17.665 14.326 31.995 31.988 31.995h255.909c17.665 0 31.995-14.331 31.995-31.995v-96.010h319.88c17.671 0 31.988-14.326 31.988-32.001 0-17.671-14.319-31.995-31.988-31.995zM607.964 896h-191.931v-64.003h191.931v64.003zM863.866 704.004v63.997h-703.749v-736.013c0-17.657 14.331-31.995 31.988-31.995h639.779c17.671 0 31.983 14.338 31.983 31.995v672.017zM671.947 544.010h63.971v-384.004h-63.971v384.004zM480.002 608h63.985v-447.994h-63.985v447.994zM288.078 544.010h63.976v-384.004h-63.976v384.004z" />
<glyph unicode="&#xe90f;" glyph-name="confirm" d="M512 960c-281.6 0-512-230.4-512-512s230.4-512 512-512c281.6 0 512 230.4 512 512s-230.4 512-512 512zM832 576l-339.2-339.2c-25.6-25.6-67.2-25.6-89.6 0l-211.2 211.2c0 0-32 32 0 64s64 0 64 0l192-192 320 320c0 0 32 32 64 0s0-64 0-64z" />
<glyph unicode="&#xe910;" glyph-name="monitor1" d="M159.801 364.654h140.88v214.326h-140.88v-214.326zM441.558 364.654h140.882v333.396h-140.88v-333.396h-0.002zM911.156 960h-798.316c-51.872 0-93.92-42.632-93.92-95.223v-833.555c0-52.591 42.048-95.223 93.92-95.223h798.316c51.872 0 93.924 42.632 93.924 95.223v833.555c0 52.591-42.052 95.223-93.924 95.223zM206.76 55.068h-93.92v95.26h93.92v-95.26zM911.156 78.888h-164.36v47.626h164.36v-47.626zM958.116 256.629c-13.819 8.106-29.847 12.769-46.96 12.769h-798.316c-17.113 0-33.142-4.663-46.96-12.769v608.141c0 26.297 21.024 47.606 46.96 47.606h798.316c25.934 0 46.96-21.312 46.96-47.606v-608.141zM723.317 364.654h140.88v452.466h-140.88v-452.466z" />
<glyph unicode="&#xe911;" glyph-name="alert" d="M980.299 794.746l-50.665 25.612-87.982-161.333-166.921 57.178-19.094 34.457 53.039 146.361 218.224-22.274 5.959 58.13-266.149 27.123-49.252-140.444-14.901 26.889-145.477-87.515 63.080-113.837-263.315-159.418c-20.892 12.071-45.12 19.012-70.983 19.012-78.509 0-142.162-63.649-142.162-142.162 0-78.509 63.65-142.158 142.162-142.158 28.953 0 55.87 8.678 78.331 23.544l137.245-137.255h-215.571v-170.657h568.662v170.659h-272.831l-177.344 177.346c14.94 22.501 23.663 49.489 23.663 78.521 0 29.296-8.868 56.519-24.057 79.141l246.301 149.106 46.617-84.127 145.482 87.511-27.635 49.869 154.525-52.909 111.048 203.626zM697.666-7.186h-454.935v57.036h454.937v-57.036zM100.59 362.528c0 47.023 38.258 85.275 85.275 85.275s85.269-38.251 85.269-85.275c0-47.021-38.251-85.275-85.269-85.275s-85.275 38.256-85.275 85.275zM617.344 586.236l-83.879 151.378 48.624 29.246 83.879-151.376-48.624-29.249z" />
<glyph unicode="&#xe912;" glyph-name="l-play" d="M938.668-64l-853.332 512 853.332 512z" />
<glyph unicode="&#xe913;" glyph-name="monitor2" d="M964.305 602.795h-904.609c-26.297 0-47.61-21.317-47.61-47.61v-214.355c0-26.297 21.317-47.614 47.61-47.614h904.607c26.297 0 47.61 21.321 47.61 47.614v214.355c0.002 26.295-21.315 47.61-47.608 47.61zM226.334 388.469h-119.021v119.072h119.021v-119.072zM916.693 412.286h-190.44v71.439h190.44v-71.439zM964.305 245.585h-904.609c-26.297 0-47.61-21.317-47.61-47.61v-214.365c0-26.297 21.317-47.61 47.61-47.61h904.607c26.297 0 47.61 21.317 47.61 47.61v214.365c0.002 26.295-21.315 47.61-47.608 47.61zM226.334 31.26h-119.021v119.070h119.021v-119.070zM916.693 55.069h-190.44v71.443h190.44v-71.443zM964.305 960h-904.609c-26.297 0-47.61-21.311-47.61-47.606v-214.359c0-26.297 21.317-47.61 47.61-47.61h904.607c26.297 0 47.61 21.317 47.61 47.61v214.361c0.002 26.295-21.315 47.604-47.608 47.604zM226.334 745.676h-119.021v119.076h119.021v-119.076zM916.693 769.495h-190.44v71.439h190.44v-71.439z" />
<glyph unicode="&#xe914;" glyph-name="edit" d="M633.213 782.262l205.492-206.805-520.149-523.476-205.365 206.805 520.023 523.476zM994.63 832.147l-91.647 92.219c-35.415 35.634-92.926 35.634-128.458 0l-87.784-88.339 205.5-206.807 102.387 103.036c27.46 27.638 27.46 72.244 0 99.889zM5.641-31.887c-3.729-16.946 11.456-32.114 28.284-28.016l228.995 55.878-205.373 206.797-51.907-234.66z" />
<glyph unicode="&#xe915;" glyph-name="head4" d="M1023.997 281.228c0 66.551-50.727 98.788-76.387 108.357-25.657 9.567-62.459 12.894-85.93 18.301-13.526 3.118-33.217 11.022-39.786 19.132-6.567 8.32-2.583 56.618-2.583 56.618s12.131 48.409 18.696 65.88c13.46 35.222 24.905 59.151 32.822 111.367 0 0 9.745-0.159 11.137 59.737 1.594 70.917-78.768 140.797-176.239 140.797-10.754 0-20.74-1.152-30.368-2.755-32.94 42.96-88.061 72.898-163.365 72.898-75.404 0-130.482-29.927-163.38-72.904-9.626 1.609-19.601 2.762-30.35 2.762-97.465 0-177.633-69.67-176.239-140.59 1.194-59.691 11.142-59.739 11.142-59.739 11.597-57.028 26.664-82.563 32.821-111.36 6.562-17.682 18.696-65.88 18.696-65.88s3.974-48.299-2.588-56.622c-6.562-8.317-26.254-16.011-39.781-19.132-23.671-5.41-60.275-8.943-85.938-18.509-25.657-9.569-76.382-41.805-76.382-108.357 0 0 45.122-51.384 118.561-80.87-20.552-20.743-35.531-46.968-35.531-79.471 0 0 92.012-156.446 428.965-156.446 336.961 0 428.974 156.446 428.974 156.446 0 32.743-15.203 59.11-35.989 79.923 70.855 30.161 119.012 80.417 119.012 80.417zM393.761 311.207c-8.844-10.846-35.391-20.873-53.618-24.94-31.907-7.048-81.237-11.656-115.826-24.132-14.963-5.395-43.426-16.328-70.906-34.015l159.518 514.875c2.090-74.189 14.877-109.664 14.877-109.664 7.373-44.515 25.742-77.039 25.742-77.039s9.648-62.627 18.497-85.398c8.846-23.045 25.204-48.799 25.204-48.799s5.358-100.045-3.489-110.89zM799.676 262.133c-34.585 12.475-84.184 16.811-115.826 23.859-18.228 4.067-44.769 14.368-53.618 24.945-8.846 10.843-3.484 110.882-3.484 110.882s16.356 26.027 25.204 48.799c8.844 22.773 18.495 85.129 18.495 85.129s4.298 7.208 12.217 34.47l13.523 42.84c0 0 12.567 35.316 14.873 109.947l159.524-514.885c-27.483 17.689-55.946 28.62-70.909 34.016z" />
<glyph unicode="&#xe916;" glyph-name="head1" d="M512.002-64c-282.669 0-511.817 229.228-511.817 511.996s229.152 512.004 511.817 512.004 511.814-229.235 511.814-512.004c0-282.765-229.148-511.996-511.814-511.996zM512.002 895.992c-247.336 0-447.844-200.573-447.844-447.996 0-137.699 62.231-260.754 159.941-342.942v-9.056h11.456c76.163-59.938 172.009-95.998 276.443-95.998s200.272 36.056 276.436 95.998h11.456v9.056c97.71 82.188 159.941 205.243 159.941 342.942 0 247.423-200.508 447.996-447.833 447.996zM799.897 447.996c0 159.059-128.894 288.002-287.899 288.002s-287.903-128.947-287.903-288.002h-63.977c0 194.411 157.541 352.002 351.876 352.002 194.328 0 351.873-157.587 351.873-352.002h-63.977zM224.099 246.841c-2.176 3.123-4.712 5.968-6.8 9.162h6.8v-9.162zM503.14 319.106l75.159 296.879c4.465 17.629 21.573 28.081 38.22 23.361 16.651-4.724 26.533-22.832 22.071-40.461l-74.532-294.414c26.369-17.104 43.899-46.687 43.899-80.469 0-53.023-42.963-96.002-95.956-96.002-53.004 0-95.968 42.979-95.968 96.002-0.004 49.984 38.323 90.563 87.098 95.104zM480.012 192h63.977v64.004h-63.977v-64.004zM799.897 246.841v9.162h6.8c-2.080-3.195-4.621-6.040-6.8-9.162z" />
<glyph unicode="&#xe917;" glyph-name="reload" d="M938.508 917.332v-170.666c-95.283 133.276-259.132 213.334-426.504 213.334-282.214 0-511.823-229.686-511.823-511.995 0-282.317 229.609-512.005 511.823-512.005 208.019 0 389.715 106.288 469.157 298.661-16.207 3.447-39.623 15.84-85.302 42.678-64.539-156.317-214.835-256.002-383.863-256.002-229.294 0-426.513 197.289-426.513 426.666 0 229.371 197.22 426.658 426.513 426.658 143.505 0 307.763-94.045 383.863-213.334h-170.606v-85.327h298.559l0.008 48.001-0.008 293.33h-85.302z" />
<glyph unicode="&#xe924;" glyph-name="file-empty" d="M917.806 730.924c-22.212 30.292-53.174 65.7-87.178 99.704s-69.412 64.964-99.704 87.178c-51.574 37.82-76.592 42.194-90.924 42.194h-496c-44.112 0-80-35.888-80-80v-864c0-44.112 35.888-80 80-80h736c44.112 0 80 35.888 80 80v624c0 14.332-4.372 39.35-42.194 90.924zM785.374 785.374c30.7-30.7 54.8-58.398 72.58-81.374h-153.954v153.946c22.984-17.78 50.678-41.878 81.374-72.572zM896 16c0-8.672-7.328-16-16-16h-736c-8.672 0-16 7.328-16 16v864c0 8.672 7.328 16 16 16 0 0 495.956 0.002 496 0v-224c0-17.672 14.326-32 32-32h224v-624z" />
<glyph unicode="&#xe957;" glyph-name="ngroup" d="M896 256v512c0 35.2-28.8 64-64 64h-640c-35.2 0-64-28.8-64-64v-512h-128v-192h1024v192h-128zM640 128h-256v64h256v-64zM832 256h-640v511.886c0.034 0.040 0.076 0.082 0.114 0.114h639.77c0.040-0.034 0.082-0.076 0.116-0.116v-511.884z" />
<glyph unicode="&#xe9c7;" glyph-name="download" d="M736 512l-256-256-256 256h160v384h192v-384zM480 256h-480v-256h960v256h-480zM896 128h-128v64h128v-64z" />
<glyph unicode="&#xe9c8;" glyph-name="upload" d="M480 256h-480v-256h960v256h-480zM896 128h-128v64h128v-64zM224 640l256 256 256-256h-160v-320h-192v320z" />
<glyph unicode="&#xea0f;" glyph-name="cross" d="M1014.662 137.34c-0.004 0.004-0.008 0.008-0.012 0.010l-310.644 310.65 310.644 310.65c0.004 0.004 0.008 0.006 0.012 0.010 3.344 3.346 5.762 7.254 7.312 11.416 4.246 11.376 1.824 24.682-7.324 33.83l-146.746 146.746c-9.148 9.146-22.45 11.566-33.828 7.32-4.16-1.55-8.070-3.968-11.418-7.31 0-0.004-0.004-0.006-0.008-0.010l-310.648-310.652-310.648 310.65c-0.004 0.004-0.006 0.006-0.010 0.010-3.346 3.342-7.254 5.76-11.414 7.31-11.38 4.248-24.682 1.826-33.83-7.32l-146.748-146.748c-9.148-9.148-11.568-22.452-7.322-33.828 1.552-4.16 3.97-8.072 7.312-11.416 0.004-0.002 0.006-0.006 0.010-0.010l310.65-310.648-310.65-310.652c-0.002-0.004-0.006-0.006-0.008-0.010-3.342-3.346-5.76-7.254-7.314-11.414-4.248-11.376-1.826-24.682 7.322-33.83l146.748-146.746c9.15-9.148 22.452-11.568 33.83-7.322 4.16 1.552 8.070 3.97 11.416 7.312 0.002 0.004 0.006 0.006 0.010 0.010l310.648 310.65 310.648-310.65c0.004-0.002 0.008-0.006 0.012-0.008 3.348-3.344 7.254-5.762 11.414-7.314 11.378-4.246 24.684-1.826 33.828 7.322l146.746 146.748c9.148 9.148 11.57 22.454 7.324 33.83-1.552 4.16-3.97 8.068-7.314 11.414z" />
<glyph unicode="&#xea1c;" glyph-name="r-play" d="M85.333 960l853.333-512-853.333-512z" />
<glyph unicode="&#xea77;" glyph-name="paragraph-left" d="M0 896h1024v-128h-1024zM0 704h640v-128h-640zM0 320h640v-128h-640zM0 512h1024v-128h-1024zM0 128h1024v-128h-1024z" />
</font>
</defs>
</svg>
